<?xml version="1.0" encoding="UTF-8"?>
<svg version="1.1" xmlns="http://www.w3.org/2000/svg" width="56" height="56">
<path d="M0 0 C3.35778076 2.5879481 4.92575165 4.93873687 6.1640625 8.921875 C6.359375 12.03515625 6.359375 12.03515625 6.2890625 15.234375 C6.27101562 16.30300781 6.25296875 17.37164063 6.234375 18.47265625 C6.21117187 19.28089844 6.18796875 20.08914062 6.1640625 20.921875 C6.96070313 20.88707031 7.75734375 20.85226563 8.578125 20.81640625 C15.980996 20.62728181 20.82322314 20.76663783 26.4140625 26.046875 C29.10249906 30.46359221 30.63503676 34.89573002 29.82421875 40.10546875 C28.21021709 45.15758046 25.70704351 48.06147955 21.1640625 50.921875 C16.6068335 52.76164523 12.65510307 53.42469541 7.9140625 51.921875 C3.7983119 50.08169908 1.69857223 47.6084346 -0.8359375 43.921875 C-1.93100242 40.63668025 -1.93554358 38.18524085 -1.8984375 34.734375 C-1.88941406 33.64769531 -1.88039063 32.56101563 -1.87109375 31.44140625 C-1.85949219 30.60996094 -1.84789063 29.77851562 -1.8359375 28.921875 C-2.63257812 28.95667969 -3.42921875 28.99148437 -4.25 29.02734375 C-11.652871 29.21646819 -16.49509814 29.07711217 -22.0859375 23.796875 C-24.76598378 19.39394183 -26.35271434 14.93102346 -25.4609375 9.73828125 C-23.92689514 5.12743802 -21.72678599 1.92843974 -17.8359375 -1.078125 C-11.67811326 -3.80177803 -5.80471646 -3.40872712 0 0 Z M-16.8359375 8.921875 C-18.1668691 12.32157311 -18.1668691 12.32157311 -17.8359375 15.921875 C-16.23876171 19.10516377 -16.23876171 19.10516377 -12.8359375 20.921875 C-9.13018551 21.32727283 -5.54720311 21.21435653 -1.8359375 20.921875 C-1.13076909 13.41801729 -1.13076909 13.41801729 -4.0234375 6.734375 C-6.65087614 4.81293582 -6.65087614 4.81293582 -9.3359375 4.359375 C-12.81136906 5.1413471 -14.41795925 6.30239856 -16.8359375 8.921875 Z M6.1640625 28.921875 C5.49646795 36.40628142 5.49646795 36.40628142 8.2265625 43.171875 C11.10494012 45.2059629 11.10494012 45.2059629 14.7265625 45.046875 C18.82894366 43.70427753 20.17036253 42.74313328 22.1640625 38.921875 C22.3356992 35.28947687 22.3356992 35.28947687 21.1640625 31.921875 C18.88037167 29.64342199 17.59915082 28.96744989 14.3671875 28.62890625 C13.39265625 28.66371094 12.418125 28.69851562 11.4140625 28.734375 C9.93679687 28.77498047 9.93679687 28.77498047 8.4296875 28.81640625 C7.30820312 28.86861328 7.30820312 28.86861328 6.1640625 28.921875 Z " fill="#39417C" transform="translate(25.8359375,3.078125)"/>
<path d="M0 0 C2.5 0.125 2.5 0.125 3.5 1.125 C3.64115161 3.79558851 3.54247107 6.44932238 3.5 9.125 C1.50045254 9.16754356 -0.50041636 9.16580783 -2.5 9.125 C-3.5 8.125 -3.5 8.125 -3.625 4.625 C-3.46601073 0.17330054 -3.46601073 0.17330054 0 0 Z M-0.5 3.125 C-0.5 4.115 -0.5 5.105 -0.5 6.125 C0.16 6.125 0.82 6.125 1.5 6.125 C1.17 5.135 0.84 4.145 0.5 3.125 C0.17 3.125 -0.16 3.125 -0.5 3.125 Z " fill="#33BA79" transform="translate(39.5,34.875)"/>
<path d="M0 0 C1.98 0 3.96 0 6 0 C6.625 3.375 6.625 3.375 7 7 C5 9 5 9 2.375 9.125 C1.59125 9.08375 0.8075 9.0425 0 9 C0 6.03 0 3.06 0 0 Z M2 3 C2 3.99 2 4.98 2 6 C2.66 6 3.32 6 4 6 C4 5.01 4 4.02 4 3 C3.34 3 2.68 3 2 3 Z " fill="#34BE76" transform="translate(14,12)"/>
</svg>
